<?xml version="1.0" encoding="UTF-8" standalone="no"?>
<!DOCTYPE svg PUBLIC "-//W3C//DTD SVG 1.1//EN" "http://www.w3.org/Graphics/SVG/1.1/DTD/svg11.dtd">
<svg width="100%" height="100%" viewBox="0 0 512 512" version="1.1" xmlns="http://www.w3.org/2000/svg" xmlns:xlink="http://www.w3.org/1999/xlink" xml:space="preserve" xmlns:serif="http://www.serif.com/" style="fill-rule:evenodd;clip-rule:evenodd;stroke-linejoin:round;stroke-miterlimit:2;stroke-opacity:0;">
    <g transform="matrix(1,0,0,1,209,48)">
        <path d="M0,0C6.962,1.153 13.062,3.853 19.25,7.188C25.056,11.037 29.399,14.781 34,20C39.639,27.646 42.866,35.378 45.934,44.277C47,48 47,48 47,52L49,52C49.137,51.004 49.273,50.007 49.414,48.98C50.286,43.06 52.828,38.371 55.559,33.09C59.261,26.888 63.681,21.863 69,17C73.213,13.755 77.154,11.403 81.938,9.125C89.654,7.41 97.134,7.377 105,8C110.937,9.575 115.12,11.431 120.25,14.75C125.296,19.123 129.46,23.364 132.852,29.168C137.857,38.763 141.215,48.289 143,59C143.65,75.383 143.559,91.113 139,107C136.561,114.428 133.844,121.718 131,129C130.316,130.779 129.631,132.558 128.926,134.391C127.299,138.6 125.658,142.803 124,147C124.981,146.42 125.962,145.84 126.973,145.242C140.119,137.633 153.03,131.759 167.973,128.695C178.805,127.197 190.077,126.759 200.879,128.695C205.579,130.124 209.582,132.34 213.813,134.813C218.002,138.002 221.55,141.019 225,145C227.345,149.282 229.456,153.369 231,158C231.522,166.428 231.536,174.085 229.25,182.25C227,187 227,187 224.125,190.438C223.754,191.283 223.383,192.129 223,193C226.991,195.315 226.991,195.315 233,197C252.385,203.499 252.385,203.499 261,209C267.897,214.612 274.128,220.514 279,228C282.837,234.871 285.486,241.268 287,249C287.599,257.547 287.739,265.412 285.375,273.688C282.879,278.219 280.391,282.087 277,286C273.109,289.372 269.24,291.866 264.75,294.375C257.648,296.382 251.276,296.546 243.922,296.383C237.234,295.863 232.245,294.498 226,292C218.08,288.351 212.11,283.83 205.855,277.875C201.731,273.723 197.87,269.39 194,265C188.43,259.121 182.351,254.008 176,249C175.072,248.267 174.144,247.533 173.188,246.777C153.764,231.814 132.034,220.318 109,212C107.453,211.354 105.905,210.709 104.311,210.043C102.558,209.699 100.806,209.355 99,209C94.024,211.04 94.024,211.04 89.344,214.613C87.58,215.841 85.817,217.069 84,218.334C82.185,219.647 80.37,220.96 78.5,222.313C74.867,224.874 71.231,227.433 67.594,229.988C65.992,231.139 64.39,232.289 62.74,233.474C61.506,234.307 60.272,235.141 59,236L57,236C57.603,237.342 58.207,238.684 58.828,240.066C64.359,252.617 68.738,264.43 71,278C71.613,294.662 71.924,310.899 67,327C62.795,339.603 56.98,351.63 49.063,362.313C47.722,363.859 46.381,365.406 45,367C43.597,368.65 42.195,370.3 40.75,372C29.95,383.369 17.878,391.709 3.875,398.688C-6.578,403.441 -17.704,406.117 -29,408C-57.913,409.088 -57.913,409.088 -71.191,405.344C-79.863,402.284 -88.112,398.733 -96,394C-101.571,395.857 -106.384,398.126 -111.625,400.75C-128.536,408.839 -146.349,413.906 -165,416C-174.334,416.411 -183.664,416.245 -193,416C-189.011,413.008 -184.91,410.858 -180.468,408.621C-168.373,402.529 -156.371,396.463 -146.762,386.715C-145.85,385.819 -144.939,384.923 -144,384L-142,384C-141.34,382.68 -140.68,381.36 -140,380C-137.687,377.316 -135.354,374.648 -133,372C-132.34,371.01 -131.68,370.02 -131,369C-131.839,363.965 -132.962,360.152 -134.75,355.438C-142.546,333.736 -145.443,312.196 -145.436,289.281C-145.27,275.78 -143.087,263.868 -138.648,251.117C-133.662,238.441 -125.869,227.307 -116.938,217.098C-107.875,207.541 -97.647,200.116 -86,194C-75.481,188.96 -64.578,185.49 -53,184C-38.173,183.02 -23.24,182.954 -8.801,186.785C-1.639,189.074 5.262,191.631 12,195C18.393,186.265 21.685,174.957 24.746,164.691C26.579,157.834 27.998,151.025 29,144C29.289,142.309 29.578,140.618 29.875,138.875C29.442,136.462 29.442,136.462 29,134C20.933,120.382 7.85,108.554 -4.188,98.504C-17.645,88.187 -32.085,80.288 -47.25,72.773C-52.06,69.965 -55.344,67.179 -59,63C-61.345,58.718 -63.456,54.631 -65,50C-65.503,42.28 -65.546,35.067 -63.563,27.563C-60.334,21.813 -56.725,17.606 -52,13C-44.038,7.148 -36.317,3.988 -27,1C-18.093,-0.781 -9.045,-0.447 0,0Z" style="fill:rgb(84,138,75);fill-rule:nonzero;"/>
    </g>
    <g transform="matrix(1,0,0,1,196.062,233.688)">
        <path d="M0,0C14.525,3.926 26.502,9.851 38.938,18.313C48.486,25.522 56.799,33.694 63.938,43.313C65.272,45.645 66.606,47.978 67.938,50.313C68.928,51.303 69.918,52.292 70.938,53.313C77.61,65.668 81.819,78.43 83.938,92.313C84.739,108.932 84.846,125.262 79.938,141.313C75.732,153.916 69.917,165.943 62,176.625C60.659,178.172 59.319,179.719 57.938,181.313C56.535,182.963 55.133,184.613 53.688,186.313C42.887,197.681 30.815,206.021 16.813,213C6.36,217.753 -4.767,220.43 -16.063,222.313C-44.975,223.401 -44.975,223.401 -58.254,219.656C-66.926,216.597 -75.174,213.046 -83.063,208.313C-88.634,210.17 -93.447,212.438 -98.688,215.063C-115.599,223.151 -133.411,228.219 -152.063,230.313C-161.397,230.724 -170.726,230.558 -180.063,230.313C-176.074,227.321 -171.973,225.171 -167.531,222.934C-155.435,216.842 -143.433,210.775 -133.824,201.027C-132.457,199.683 -132.457,199.683 -131.063,198.313L-129.063,198.313C-128.403,196.993 -127.743,195.673 -127.063,194.313C-124.75,191.628 -122.417,188.961 -120.063,186.313C-119.403,185.323 -118.743,184.333 -118.063,183.313C-118.902,178.277 -120.024,174.465 -121.813,169.75C-129.608,148.049 -132.506,126.508 -132.499,103.593C-132.332,90.093 -130.149,78.18 -125.711,65.43C-120.724,52.754 -112.931,41.619 -104,31.41C-94.938,21.854 -84.709,14.428 -73.063,8.313C-50.496,-2.5 -24.502,-5.109 0,0Z" style="fill:rgb(250,78,88);fill-rule:nonzero;"/>
    </g>
    <g transform="matrix(1,0,0,1,409.926,176.684)">
        <path d="M0,0C6.403,2.001 11.767,5.277 17.074,9.316C20.824,12.566 20.824,12.566 24.074,16.316C26.419,20.598 28.531,24.685 30.074,29.316C30.597,37.745 30.61,45.402 28.324,53.566C26.074,58.316 26.074,58.316 23.199,61.754C22.642,63.022 22.642,63.022 22.074,64.316C26.065,66.631 26.065,66.631 32.074,68.316C51.459,74.815 51.459,74.815 60.074,80.316C66.971,85.928 73.202,91.83 78.074,99.316C81.911,106.187 84.56,112.585 86.074,120.316C86.673,128.863 86.814,136.728 84.449,145.004C81.954,149.535 79.466,153.403 76.074,157.316C72.183,160.689 68.314,163.182 63.824,165.691C56.722,167.699 50.35,167.863 42.996,167.699C36.308,167.179 31.319,165.814 25.074,163.316C17.154,159.668 11.184,155.147 4.93,149.191C0.806,145.039 -3.055,140.707 -6.926,136.316C-12.496,130.437 -18.575,125.324 -24.926,120.316C-26.318,119.216 -26.318,119.216 -27.738,118.094C-47.162,103.13 -68.892,91.635 -91.926,83.316C-94.234,82.34 -94.234,82.34 -96.59,81.344C-98.351,81.005 -100.112,80.666 -101.926,80.316C-107.081,82.471 -107.081,82.471 -111.984,86.184C-113.834,87.461 -115.683,88.739 -117.588,90.055C-119.514,91.432 -121.439,92.811 -123.363,94.191C-127.164,96.87 -130.979,99.528 -134.797,102.184C-136.477,103.381 -138.157,104.578 -139.888,105.812C-141.221,106.638 -142.553,107.465 -143.926,108.316C-144.916,107.986 -145.906,107.656 -146.926,107.316C-149.384,103.733 -151.72,100.061 -153.926,96.316L-153.926,93.316C-150.984,89.907 -147.998,86.604 -144.926,83.316C-143.441,81.666 -131.426,68.316 -126.926,63.316C-125.544,61.749 -124.162,60.181 -122.738,58.566C-112.618,47.374 -102.007,37.36 -89.926,28.316C-88.906,27.525 -87.886,26.733 -86.836,25.918C-75.061,16.851 -62.868,9.578 -48.926,4.316C-33.11,-0.607 -16.492,-2.872 0,0Z" style="fill:rgb(105,168,97);fill-rule:nonzero;"/>
    </g>
    <g transform="matrix(1,0,0,1,210.062,72.6875)">
        <path d="M0,0C5.985,1.591 11.337,3.66 16.938,6.313C21.688,9.625 21.688,9.625 25.938,13.313C27.278,14.447 28.619,15.581 30,16.75C36.794,24.623 40.501,33.83 44.438,43.375C46.278,50.66 46.215,56.816 45.938,64.313C41.938,59.313 41.938,59.313 38.875,53.813C32.897,43.437 24.864,34.537 15.883,26.656C6.991,19.581 -2.781,14.086 -13.063,9.313L-15.063,9.313C-16.857,12.437 -16.857,12.437 -18.5,16.25C-19.097,17.538 -19.694,18.826 -20.309,20.152C-20.557,21.195 -20.806,22.238 -21.063,23.313C-19.413,23.642 -17.763,23.973 -16.063,24.313C-3.701,30.434 6.543,38.449 16.152,48.289C24.318,57.153 29.492,67.669 34.938,78.313C36.258,76.662 37.578,75.013 38.938,73.313C43.592,67.728 47.732,63.16 53.875,59.25C58.938,56.313 58.938,56.313 60.938,55.313C64.625,55.063 64.625,55.063 68.938,55.313C72.563,56.375 72.563,56.375 75.938,58.313C79.188,61.188 79.188,61.188 81.938,65.313C85.233,77.016 86.44,88.179 85.938,100.313C84.928,109.219 82.637,117.169 78.938,125.313C74.334,134.231 68.673,141.595 62.266,149.305C59.257,152.928 56.332,156.598 53.438,160.313C48.22,166.992 42.868,173.557 37.492,180.109C35.011,182.993 35.011,182.993 33.938,185.313C29.938,184.313 29.938,184.313 26.879,182.352C25.764,181.555 24.649,180.758 23.5,179.938C19.694,177.23 15.951,174.72 11.938,172.313C12.861,167.693 14.145,164.477 16.125,160.25C21.907,147.247 26.29,133.481 27.938,119.313C28.206,117.704 28.474,116.095 28.75,114.438C28.348,111.901 28.348,111.901 27.938,109.313C19.925,95.689 6.766,83.848 -5.25,73.816C-18.708,63.5 -33.147,55.601 -48.313,48.086C-53.118,45.28 -56.396,42.474 -60.063,38.313C-61.053,36.663 -62.042,35.013 -63.063,33.313C-63.625,29.5 -63.625,29.5 -63.063,25.313C-60.235,20.672 -56.905,17.149 -53.125,13.25C-46.813,8.341 -40.543,5.096 -33.063,2.313C-22.065,-0.839 -11.377,-1.545 0,0Z" style="fill:rgb(105,168,97);fill-rule:nonzero;"/>
    </g>
    <g transform="matrix(1,0,0,1,429,242)">
        <path d="M0,0C10.206,0.287 20.581,5.439 30,9C38.03,12.65 44.017,17.22 50.336,23.27C55.022,28.072 58.422,32.965 61.688,38.813C64.146,44.327 65.837,49.06 67,55C67.599,63.547 67.739,71.412 65.375,79.688C62.879,84.219 60.391,88.087 57,92C53.109,95.372 49.24,97.866 44.75,100.375C37.648,102.382 31.276,102.546 23.922,102.383C17.234,101.863 12.245,100.498 6,98C-1.92,94.351 -7.89,89.83 -14.145,83.875C-18.269,79.723 -22.13,75.39 -26,71C-31.57,65.121 -37.649,60.008 -44,55C-44.928,54.267 -45.856,53.533 -46.813,52.777C-64.962,38.795 -85.053,27.978 -106.414,19.789C-111.012,17.996 -115.506,16.036 -120,14C-115.712,10.569 -113.033,8.792 -108,7C-102.292,5.987 -96.788,5.805 -91,6C-87.006,6.715 -83.027,7.514 -79.063,8.375C-60.325,12.223 -42.172,14.052 -23,13C-18.331,12.186 -15.352,11.067 -11,9C-5.972,6.123 -5.972,6.123 -2,3C-1.34,2.01 -0.68,1.02 0,0Z" style="fill:rgb(83,137,74);fill-rule:nonzero;"/>
    </g>
    <g transform="matrix(1,0,0,1,182,232)">
        <path d="M0,0C10.777,0.497 20.759,3.511 30.875,7.063C44.139,13.424 56.39,21.789 67,32C72.867,38.303 77.739,44.524 82,52C82.99,52.99 83.98,53.98 85,55C91.673,67.355 95.882,80.117 98,94C98.801,110.619 98.908,126.95 94,143C89.795,155.603 83.98,167.63 76.063,178.313C74.722,179.859 73.381,181.406 72,183C70.598,184.65 69.195,186.3 67.75,188C56.95,199.369 44.878,207.709 30.875,214.688C20.422,219.441 9.296,222.117 -2,224C-16.43,224.543 -30.576,224.993 -44.617,221.168C-48.169,219.941 -51.594,218.59 -55,217L-55,216C-51.274,215.666 -47.544,215.385 -43.813,215.125C-29.492,213.975 -16.399,211.267 -3,206C10.653,199.625 22.057,191.382 33,181C40.968,172.705 40.968,172.705 47,163C45.02,162.01 45.02,162.01 43,161C24.717,146.754 8.98,130.439 -5,112C-5.764,111.02 -6.529,110.041 -7.316,109.031C-9.313,106.375 -9.313,106.375 -12,102C-11.34,100.68 -10.68,99.36 -10,98C-5.625,94.625 -5.625,94.625 -1,92C0.32,92.66 1.64,93.32 3,94C4.557,96.004 6.025,98.079 7.438,100.188C19.98,118.15 35.544,134.733 53,148C53.99,148.33 54.98,148.66 56,149C57.129,145.708 58.103,142.363 59,139C59.491,137.601 59.982,136.203 60.488,134.762C64.627,121.725 65.601,107.595 65.344,93.977C64.424,80.657 61.37,68.231 55.973,56.027C50.147,44.134 43.191,33.569 34,24C23.794,14.316 12.595,7.174 0,1L0,0Z" style="fill:rgb(228,58,72);fill-rule:nonzero;"/>
    </g>
    <g transform="matrix(1,0,0,1,210.062,72.6875)">
        <path d="M0,0C5.985,1.591 11.337,3.66 16.938,6.313C21.688,9.625 21.688,9.625 25.938,13.313C27.278,14.447 28.619,15.581 30,16.75C36.794,24.623 40.501,33.83 44.438,43.375C46.278,50.66 46.215,56.816 45.938,64.313C41.938,59.313 41.938,59.313 38.875,53.813C32.897,43.437 24.864,34.537 15.883,26.656C6.991,19.581 -2.781,14.086 -13.063,9.313L-15.063,9.313C-16.857,12.437 -16.857,12.437 -18.5,16.25C-19.097,17.538 -19.694,18.826 -20.309,20.152C-20.557,21.195 -20.806,22.238 -21.063,23.313C-19.413,23.642 -17.763,23.973 -16.063,24.313C-3.699,30.435 6.546,38.452 16.156,48.293C19.938,52.398 22.966,56.58 25.938,61.313C26.857,62.711 27.776,64.11 28.723,65.551C31.52,70.081 33.988,74.356 35.938,79.313C34.625,85.688 34.625,85.688 31.938,90.313C30.612,95.616 30.609,100.819 30.414,106.27C30.257,107.274 30.1,108.278 29.938,109.313C28.453,108.818 28.453,108.818 26.938,108.313C25.597,106.518 24.256,104.724 22.875,102.875C10.839,86.932 -3.977,73.846 -20.656,62.969C-29.591,57.453 -38.908,52.746 -48.313,48.086C-53.118,45.28 -56.396,42.474 -60.063,38.313C-61.053,36.663 -62.042,35.013 -63.063,33.313C-63.625,29.5 -63.625,29.5 -63.063,25.313C-60.235,20.672 -56.905,17.149 -53.125,13.25C-46.813,8.341 -40.543,5.096 -33.063,2.313C-22.065,-0.839 -11.377,-1.545 0,0Z" style="fill:rgb(95,154,86);fill-rule:nonzero;"/>
    </g>
    <g transform="matrix(1,0,0,1,314,56)">
        <path d="M0,0C5.937,1.575 10.12,3.431 15.25,6.75C20.296,11.123 24.46,15.364 27.852,21.168C32.857,30.763 36.215,40.289 38,51C38.65,67.385 38.555,83.11 34,99C32.181,104.578 30.228,110.058 28.105,115.527C26.729,119.105 25.455,122.724 24.301,126.379C22.546,131.613 20.757,136.212 18,141C11.362,147.511 3.936,152.238 -4,157C-1.758,150.065 0.801,143.294 3.438,136.5C9,121.758 13.084,107.206 13.313,91.375C13.237,79.243 11.772,67.623 7.609,56.176C4.739,49.673 1.288,43.66 -3,38C-6.815,34.247 -10.37,31.364 -15,28.688C-19.079,26.967 -22.637,25.77 -27,25C-34.98,24.657 -42.19,25.356 -50,27C-46.677,20.354 -42.133,15.336 -37,10C-32.852,6.388 -29.071,4.034 -24.125,1.625C-15.942,-0.546 -8.414,-0.746 0,0Z" style="fill:rgb(72,121,65);fill-rule:nonzero;"/>
    </g>
    <g transform="matrix(1,0,0,1,409.926,176.684)">
        <path d="M0,0C6.403,2.001 11.767,5.277 17.074,9.316C20.824,12.566 20.824,12.566 24.074,16.316C26.419,20.598 28.531,24.685 30.074,29.316C30.6,37.791 30.581,45.471 28.324,53.691C26.074,58.316 26.074,58.316 22.074,62.316C21.724,60.233 21.373,58.15 21.012,56.004C19.855,50.66 18.52,47.274 15.887,42.316C12.344,37.336 12.344,37.336 8.262,33.941C2.357,30.24 -3.392,27.123 -10.051,25.004C-21.48,23.392 -32.612,24.098 -43.926,26.316C-60.244,30.097 -74.372,37.098 -88.375,46.203C-107.203,59.084 -124.138,74.969 -138.926,92.316C-141.871,95.712 -144.862,99.024 -147.926,102.316L-149.926,102.316C-151.019,101.244 -152.112,100.171 -153.238,99.066C-153.795,97.499 -154.352,95.931 -154.926,94.316C-151.932,89.661 -147.934,86.098 -143.926,82.316C-142.771,80.996 -141.616,79.676 -140.426,78.316C-136.534,73.869 -132.54,69.525 -128.535,65.18C-126.541,62.991 -124.597,60.757 -122.676,58.504C-112.634,47.29 -101.986,37.312 -89.926,28.316C-88.398,27.131 -88.398,27.131 -86.84,25.922C-75.065,16.852 -62.869,9.579 -48.926,4.316C-33.11,-0.607 -16.492,-2.872 0,0Z" style="fill:rgb(96,154,87);fill-rule:nonzero;"/>
    </g>
    <g transform="matrix(1,0,0,1,429,242)">
        <path d="M0,0C6.626,0.144 12.806,2.843 19,5C17.333,6.667 15.667,8.333 14,10C12.618,11.403 11.236,12.805 9.813,14.25C6,18 6,18 4,19L4,21C5.32,21.99 6.64,22.98 8,24L8,26C8.99,26.33 9.98,26.66 11,27C16.26,32.582 21.002,38.599 25.57,44.754C27.762,47.682 30.093,50.505 32.438,53.313C32.953,54.859 33.469,56.406 34,58C31.114,61.056 28.082,62.9 24.445,64.992C23.308,65.325 22.171,65.657 21,66C17.588,62.588 15.191,59.514 12.5,55.563C7.236,48.106 1.368,41.522 -5,35C-6.155,33.721 -7.31,32.443 -8.5,31.125C-9.655,30.424 -10.81,29.723 -12,29C-17.516,29.039 -17.516,29.039 -24,30C-43.884,30.747 -63.448,28.451 -83,25C-84.673,24.713 -86.346,24.425 -88.07,24.129C-98.777,22.159 -109.112,19.671 -119,15C-119.33,14.34 -119.66,13.68 -120,13C-114.586,9.951 -109.894,7.396 -103.813,6.125C-102.554,6.084 -101.296,6.043 -100,6C-98.683,5.948 -97.365,5.897 -96.008,5.844C-90.132,6.027 -84.807,7.127 -79.063,8.375C-60.325,12.223 -42.172,14.052 -23,13C-18.331,12.186 -15.352,11.067 -11,9C-5.972,6.123 -5.972,6.123 -2,3C-1.34,2.01 -0.68,1.02 0,0Z" style="fill:rgb(72,121,65);fill-rule:nonzero;"/>
    </g>
    <g transform="matrix(1,0,0,1,275,127.562)">
        <path d="M0,0C4,0.438 4,0.438 7.625,1.5C11,3.438 11,3.438 14.25,6.313C17,10.438 17,10.438 18.813,16.875C20.931,28.585 21.657,39.647 20.313,51.5C18.102,61.502 14.512,70.456 9.203,79.215C5.56,84.544 1.452,89.468 -2.672,94.43C-5.681,98.053 -8.606,101.723 -11.5,105.438C-16.718,112.117 -22.069,118.682 -27.445,125.234C-29.927,128.118 -29.927,128.118 -31,130.438C-32.32,130.107 -33.64,129.778 -35,129.438C-36.32,128.118 -37.64,126.798 -39,125.438C-37.086,123.078 -37.086,123.078 -34,120.438C-27.744,113.314 -21.705,106.01 -16,98.438C-15.196,97.379 -14.391,96.321 -13.563,95.23C-6.71,85.982 -1.922,77.071 1.813,66.125C4.138,56.944 4.505,47.889 4,38.438C2.958,30.09 1.782,23.002 -2,15.438C-4.624,12.57 -4.624,12.57 -8,10.438C-12.216,9.09 -12.216,9.09 -16,8.438C-6.317,0.691 -6.317,0.691 0,0Z" style="fill:rgb(96,154,86);fill-rule:nonzero;"/>
    </g>
    <g transform="matrix(1,0,0,1,67,311)">
        <path d="M0,0L2,0C4.101,4.036 6.101,8.084 8.063,12.188C14.826,26.006 22.153,37.859 33,49C38.546,54.078 44.132,58.174 50.75,61.75C52.483,62.823 54.215,63.895 56,65C54.853,70.734 53.016,74.997 50,80C40.502,76.201 32.837,70.496 25,64C23.948,63.175 22.896,62.35 21.813,61.5C14.794,55.261 9.302,47.704 4,40C3.319,39.062 2.639,38.123 1.938,37.156C0,34.25 0,34.25 -3,28C-3.954,21.567 -3.414,15.548 -2.375,9.156C-1.731,6.07 -0.884,3.027 0,0Z" style="fill:rgb(228,58,72);fill-rule:nonzero;"/>
    </g>
</svg>
